<?xml version="1.0" standalone="no"?><!DOCTYPE svg PUBLIC "-//W3C//DTD SVG 1.1//EN" "http://www.w3.org/Graphics/SVG/1.1/DTD/svg11.dtd"><svg t="1617333702919" class="icon" viewBox="0 0 1024 1024" version="1.1" xmlns="http://www.w3.org/2000/svg" p-id="1915" xmlns:xlink="http://www.w3.org/1999/xlink" width="200" height="200"><defs><style type="text/css"></style></defs><path d="M512.697 75.444c-247.54 0-448.208 200.668-448.208 448.208s200.668 448.208 448.208 448.208c247.54 0 448.208-200.668 448.208-448.208 0-247.54-200.668-448.208-448.208-448.208zM782.651 398.325l-310.141 316.86c-1.057 1.586-2.234 3.101-3.62 4.505-12.156 12.346-31.862 12.346-44.026 0l-154.053-156.424c-12.147-12.347-12.147-32.355 0-44.684 12.155-12.347 31.861-12.347 44.016 0l131.584 133.592 292.213-298.55c12.165-12.346 31.862-12.346 44.026 0 12.147 12.346 12.147 32.353 0 44.701z" p-id="1916"></path></svg>