<?xml version="1.0" standalone="no"?><!DOCTYPE svg PUBLIC "-//W3C//DTD SVG 1.1//EN" "http://www.w3.org/Graphics/SVG/1.1/DTD/svg11.dtd"><svg t="1616469431878" class="icon" viewBox="0 0 1024 1024" version="1.1" xmlns="http://www.w3.org/2000/svg" p-id="2046" xmlns:xlink="http://www.w3.org/1999/xlink" width="200" height="200"><defs><style type="text/css"></style></defs><path d="M944 179.2H224c-16-70.4-48-105.6-96-105.6H32v41.6h96c12.8 0 41.6 0 60.8 89.6 9.6 48 22.4 134.4 35.2 217.6 16 105.6 32 208 38.4 236.8 9.6 44.8 28.8 121.6 112 121.6H848v-41.6H374.4c-38.4 0-54.4-25.6-67.2-76.8h531.2c16 0 32-12.8 35.2-28.8L992 230.4V224c0-25.6-22.4-44.8-48-44.8zM832 624H297.6c-9.6-44.8-19.2-128-32-204.8-9.6-73.6-22.4-147.2-32-198.4H944c3.2 0 3.2 0 3.2 3.2L832 624zM368 908.8a41.6 41.6 0 1 0 83.2 0 41.6 41.6 0 1 0-83.2 0zM768 908.8a41.6 41.6 0 1 0 83.2 0 41.6 41.6 0 1 0-83.2 0z" p-id="2047"></path></svg>