<?xml version="1.0" standalone="no"?><!DOCTYPE svg PUBLIC "-//W3C//DTD SVG 1.1//EN" "http://www.w3.org/Graphics/SVG/1.1/DTD/svg11.dtd"><svg t="1616990068850" class="icon" viewBox="0 0 1217 1024" version="1.1" xmlns="http://www.w3.org/2000/svg" p-id="2190" xmlns:xlink="http://www.w3.org/1999/xlink" width="237.6953125" height="200"><defs><style type="text/css"></style></defs><path d="M1184.19328 448 256.19328 448 573.60128 101.536C581.85728 93.248 581.85728 79.776 573.60128 71.456L508.73728 6.24C500.48128-2.08 487.07328-2.08 478.81728 6.24L72.38528 431.648C71.90528 432.064 71.45728 432.48 71.00928 432.928L68.83328 435.104 6.17728 495.776C1.72928 500.224-0.28672 506.144 0.03328 511.968-0.31872 517.824 1.72928 523.776 6.14528 528.224L68.96128 589.024 71.00928 591.072C71.42528 591.488 71.87328 591.872 72.32128 592.256L478.81728 1017.728C487.07328 1026.048 500.48128 1026.048 508.73728 1017.728L573.60128 952.544C581.85728 944.224 581.85728 930.752 573.60128 922.432L256.19328 576 1184.19328 576C1195.87328 576 1216.19328 555.744 1216.19328 544L1216.19328 480C1216.19328 468.256 1195.87328 448 1184.19328 448Z" p-id="2191"></path></svg>