<?xml version="1.0" standalone="no"?><!DOCTYPE svg PUBLIC "-//W3C//DTD SVG 1.1//EN" "http://www.w3.org/Graphics/SVG/1.1/DTD/svg11.dtd"><svg t="1616990474736" class="icon" viewBox="0 0 1027 1024" version="1.1" xmlns="http://www.w3.org/2000/svg" p-id="3334" xmlns:xlink="http://www.w3.org/1999/xlink" width="300.87890625" height="300"><defs><style type="text/css"></style></defs><path d="M734.72 964.48H106.24a103.04 103.04 0 0 1-103.04-103.04V225.28A103.04 103.04 0 0 1 106.24 121.6h409.6a51.84 51.84 0 0 1 0 103.68h-409.6v636.16h628.48V576a51.84 51.84 0 1 1 103.04 0v287.36a103.04 103.04 0 0 1-103.04 101.12zM847.36 450.56l179.84-195.84-92.16-94.08-87.68-89.6v379.52z" p-id="3335"></path><path d="M542.08 618.24H438.4a409.6 409.6 0 0 1 408.96-408.96v103.68a305.92 305.92 0 0 0-305.28 305.28z" p-id="3336"></path></svg>